# Blender 3.6.4
# www.blender.org
mtllib FabConvert.com_caisse_wood.mtl
o obj1
v -0.419091 -0.432382 0.419091
v 0.419091 -0.432382 0.419091
v 0.419091 0.405800 0.419091
v -0.419091 0.405800 0.419091
v -0.419091 0.405800 0.419091
v 0.419091 0.405800 0.419091
v 0.419091 0.405800 -0.419091
v -0.419091 0.405800 -0.419091
v -0.419091 0.405800 -0.419091
v 0.419091 0.405800 -0.419091
v 0.419091 -0.432382 -0.419091
v -0.419091 -0.432382 -0.419091
v -0.419091 -0.432382 -0.419091
v 0.419091 -0.432382 -0.419091
v 0.419091 -0.432382 0.419091
v -0.419091 -0.432382 0.419091
v 0.419091 -0.432382 0.419091
v 0.419091 -0.432382 -0.419091
v 0.419091 0.405800 -0.419091
v 0.419091 0.405800 0.419091
v -0.419091 -0.432382 -0.419091
v -0.419091 -0.432382 0.419091
v -0.419091 0.405800 0.419091
v -0.419091 0.405800 -0.419091
vn -0.0000 -0.0000 1.0000
vn -0.0000 1.0000 -0.0000
vn -0.0000 -0.0000 -1.0000
vn -0.0000 -1.0000 -0.0000
vn 1.0000 -0.0000 -0.0000
vn -1.0000 -0.0000 -0.0000
vt 0.367370 0.003590
vt 0.603540 0.003590
vt 0.603540 0.239760
vt 0.367370 0.239760
vt 0.367370 0.003670
vt 0.603540 0.003670
vt 0.603540 0.239830
vt 0.367370 0.239830
vt 0.368370 0.003740
vt 0.604540 0.003740
vt 0.604540 0.239910
vt 0.368370 0.239910
vt 0.367400 0.004160
vt 0.603570 0.004160
vt 0.603570 0.240320
vt 0.367400 0.240320
vt 0.368450 0.003590
vt 0.604620 0.003590
vt 0.604620 0.239760
vt 0.368450 0.239760
vt 0.367300 0.004590
vt 0.603460 0.004590
vt 0.603460 0.240760
vt 0.367300 0.240760
s 0
usemtl mat0
f 1/1/1 2/2/1 3/3/1
f 1/1/1 3/3/1 4/4/1
f 5/5/2 6/6/2 7/7/2
f 5/5/2 7/7/2 8/8/2
f 9/9/3 10/10/3 11/11/3
f 9/9/3 11/11/3 12/12/3
f 13/13/4 14/14/4 15/15/4
f 13/13/4 15/15/4 16/16/4
f 17/17/5 18/18/5 19/19/5
f 17/17/5 19/19/5 20/20/5
f 21/21/6 22/22/6 23/23/6
f 21/21/6 23/23/6 24/24/6
